<svg width="6" height="6" viewBox="0 0 6 6" fill="none" xmlns="http://www.w3.org/2000/svg">
<path d="M5.4082 2.12925C5.32966 1.9474 5.21642 1.7826 5.07481 1.6441C4.93309 1.50517 4.76599 1.39477 4.58262 1.3189C4.39247 1.23991 4.18852 1.19948 3.98262 1.19996C3.69375 1.19996 3.41191 1.27906 3.16699 1.42847C3.1084 1.46421 3.05273 1.50347 3 1.54624C2.94727 1.50347 2.8916 1.46421 2.83301 1.42847C2.58809 1.27906 2.30625 1.19996 2.01738 1.19996C1.80938 1.19996 1.60781 1.2398 1.41738 1.3189C1.2334 1.39507 1.06758 1.50464 0.925195 1.6441C0.783397 1.78245 0.670124 1.94728 0.591797 2.12925C0.510352 2.31851 0.46875 2.51949 0.46875 2.72632C0.46875 2.92144 0.508594 3.12476 0.587695 3.33159C0.653906 3.50445 0.748828 3.68374 0.870117 3.8648C1.0623 4.15132 1.32656 4.45015 1.65469 4.75308C2.19844 5.25523 2.73691 5.6021 2.75977 5.61616L2.89863 5.70523C2.96016 5.74448 3.03926 5.74448 3.10078 5.70523L3.23965 5.61616C3.2625 5.60152 3.80039 5.25523 4.34473 4.75308C4.67285 4.45015 4.93711 4.15132 5.1293 3.8648C5.25059 3.68374 5.34609 3.50445 5.41172 3.33159C5.49082 3.12476 5.53066 2.92144 5.53066 2.72632C5.53125 2.51949 5.48965 2.31851 5.4082 2.12925Z" fill="#EC2626"/>
</svg>
