<svg width="17" height="16" viewBox="0 0 17 16" fill="none" xmlns="http://www.w3.org/2000/svg">
<path d="M0.561378 0.561424H5.32456C6.16674 0.561424 6.97443 0.89598 7.56994 1.49149C8.16545 2.08701 8.50001 2.89469 8.50001 3.73688V14.851C8.50001 14.2193 8.24909 13.6136 7.80246 13.1669C7.35582 12.7203 6.75005 12.4694 6.11842 12.4694H0.561378V0.561424Z" stroke="white" stroke-opacity="0.5" stroke-width="1.1" stroke-linecap="round" stroke-linejoin="round"/>
<path d="M16.4386 0.561424H11.6755C10.8333 0.561424 10.0256 0.89598 9.43007 1.49149C8.83456 2.08701 8.5 2.89469 8.5 3.73688V14.851C8.5 14.2193 8.75092 13.6136 9.19755 13.1669C9.64419 12.7203 10.25 12.4694 10.8816 12.4694H16.4386V0.561424Z" stroke="white" stroke-opacity="0.5" stroke-width="1.1" stroke-linecap="round" stroke-linejoin="round"/>
</svg>
