<svg width="20" height="22" viewBox="0 0 20 22" fill="none" xmlns="http://www.w3.org/2000/svg">
<path fill-rule="evenodd" clip-rule="evenodd" d="M16.8313 9.65373C16.8313 6.59283 14.9201 3.98226 12.2392 2.98901C11.765 2.81334 11.4424 2.43799 11.2836 2.03822C11.053 1.45753 10.4931 1.05075 9.84211 1.05075C9.1911 1.05075 8.63123 1.45753 8.4006 2.03822C8.24182 2.43799 7.91922 2.81334 7.44505 2.98901C4.76416 3.98226 2.85291 6.59283 2.85291 9.65373C2.85291 9.6919 2.85321 9.72999 2.8538 9.76799C2.85413 9.78944 2.85383 9.81075 2.85291 9.8319L2.85291 13.825C2.85291 14.3343 2.61038 14.8122 2.20182 15.108L1.25542 15.7932C0.845303 16.0901 1.05231 16.7463 1.55611 16.7463L18.1281 16.7463C18.6319 16.7463 18.8389 16.0901 18.4288 15.7932L17.4824 15.108C17.0738 14.8122 16.8313 14.3343 16.8313 13.825L16.8313 9.83183C16.8304 9.81071 16.8301 9.78942 16.8304 9.768C16.831 9.73 16.8313 9.6919 16.8313 9.65373ZM12.244 1.64543C12.3085 1.80784 12.4322 1.94194 12.5943 2.00199C15.6436 3.13172 17.8281 6.08499 17.8662 9.56121C17.8666 9.59201 17.8667 9.62285 17.8667 9.65373C17.8667 9.68461 17.8666 9.71546 17.8662 9.74626C17.8661 9.75903 17.8659 9.7718 17.8657 9.78455C17.8657 9.78484 17.8659 9.78508 17.8662 9.78508C17.8665 9.78508 17.8667 9.78531 17.8667 9.78559L17.8667 13.825C17.8667 13.9947 17.9476 14.154 18.0838 14.2527L19.0302 14.9379C20.2605 15.8287 19.6395 17.797 18.1281 17.797L1.55611 17.797C0.0447105 17.797 -0.576309 15.8286 0.654046 14.9379L1.60044 14.2526C1.73663 14.154 1.81748 13.9947 1.81748 13.825L1.81748 9.78559C1.81748 9.7853 1.8177 9.78507 1.81798 9.78507C1.81827 9.78507 1.81849 9.78484 1.81849 9.78455C1.81829 9.77179 1.81812 9.75901 1.81798 9.74623C1.81765 9.71544 1.81748 9.6846 1.81748 9.65373C1.81748 9.62284 1.81765 9.59199 1.81798 9.56118C1.85613 6.08498 4.04066 3.13172 7.08995 2.00199C7.25203 1.94194 7.37573 1.80784 7.44023 1.64543C7.82334 0.680813 8.75438 -9.55516e-07 9.84211 -8.60424e-07C10.9298 -7.65332e-07 11.8609 0.680813 12.244 1.64543ZM11.913 19.3731C11.913 19.083 12.1448 18.8478 12.4308 18.8478C12.7167 18.8478 12.9485 19.083 12.9485 19.3731C12.9485 20.8239 11.7895 22 10.3599 22L9.32444 22C7.8948 22 6.73585 20.8239 6.73585 19.3731C6.73585 19.083 6.96764 18.8478 7.25357 18.8478C7.5395 18.8478 7.77129 19.083 7.77129 19.3731C7.77129 20.2436 8.46666 20.9493 9.32444 20.9493L10.3599 20.9493C11.2177 20.9493 11.913 20.2436 11.913 19.3731Z" fill="white" fill-opacity="0.5"/>
</svg>
