<svg width="22" height="22" viewBox="0 0 22 22" fill="none" xmlns="http://www.w3.org/2000/svg">
<path fill-rule="evenodd" clip-rule="evenodd" d="M11 0.999953C5.47715 0.999953 1 5.47711 1 11C1 16.5228 5.47715 21 11 21C16.5228 21 21 16.5228 21 11C21 5.47711 16.5228 0.999952 11 0.999953ZM-2.13542e-07 11C1.23633e-07 4.92482 4.92487 -4.71037e-05 11 -4.71037e-05C17.0751 -4.71037e-05 22 4.92482 22 11C22 17.0751 17.0751 22 11 22C4.92487 22 1.23633e-07 17.0751 -2.13542e-07 11ZM8.64266 7.89569L14.1417 13.3947L15.2994 6.75356L8.64266 7.89569ZM13.4626 14.1298L7.90738 8.57463L6.75358 15.2994L13.4626 14.1298ZM7.836 7.01948C7.41832 7.09115 7.09116 7.4183 7.0195 7.83598L5.76798 15.1303C5.65107 15.8117 6.24427 16.4033 6.92532 16.2846L14.2025 15.0159C14.6181 14.9434 14.9435 14.618 15.0159 14.2025L16.2846 6.9253C16.4033 6.24425 15.8117 5.65105 15.1303 5.76796L7.836 7.01948Z" fill="white" fill-opacity="0.5"/>
</svg>
